<mxfile host="app.diagrams.net" modified="2023-09-07T02:16:14.279Z" agent="Mozilla/5.0 (Macintosh; Intel Mac OS X 10_15_7) AppleWebKit/537.36 (KHTML, like Gecko) Chrome/116.0.0.0 Safari/537.36" etag="2zXzCosmNvEIiKhOqyWF" version="21.7.2" type="github" pages="2">
  <diagram name="Page-1" id="9xqPMki2HJdJ0KM5U1Qb">
    <mxGraphModel dx="1152" dy="639" grid="1" gridSize="10" guides="1" tooltips="1" connect="1" arrows="1" fold="1" page="1" pageScale="1" pageWidth="850" pageHeight="1100" math="0" shadow="0">
      <root>
        <mxCell id="0" />
        <mxCell id="1" parent="0" />
        <mxCell id="3DQG4zYHdlR7K3zyG9qU-1" value="" style="rounded=1;whiteSpace=wrap;html=1;fillColor=#f5f5f5;strokeColor=none;fontColor=#333333;movable=1;resizable=1;rotatable=1;deletable=1;editable=1;locked=0;connectable=1;" vertex="1" parent="1">
          <mxGeometry x="150" y="400" width="240" height="400" as="geometry" />
        </mxCell>
        <mxCell id="3DQG4zYHdlR7K3zyG9qU-77" style="edgeStyle=orthogonalEdgeStyle;rounded=0;orthogonalLoop=1;jettySize=auto;html=1;" edge="1" parent="1" source="3DQG4zYHdlR7K3zyG9qU-2" target="3DQG4zYHdlR7K3zyG9qU-43">
          <mxGeometry relative="1" as="geometry" />
        </mxCell>
        <mxCell id="3DQG4zYHdlR7K3zyG9qU-2" value="client" style="rounded=1;whiteSpace=wrap;html=1;" vertex="1" parent="1">
          <mxGeometry x="230" y="441" width="80" height="19" as="geometry" />
        </mxCell>
        <mxCell id="3DQG4zYHdlR7K3zyG9qU-20" value="&lt;font size=&quot;1&quot; style=&quot;&quot;&gt;&lt;b style=&quot;font-size: 16px;&quot;&gt;Pod&lt;/b&gt;&lt;/font&gt;" style="text;html=1;strokeColor=none;fillColor=none;align=center;verticalAlign=middle;whiteSpace=wrap;rounded=0;" vertex="1" parent="1">
          <mxGeometry x="240" y="401" width="60" height="30" as="geometry" />
        </mxCell>
        <mxCell id="3DQG4zYHdlR7K3zyG9qU-21" value="" style="rounded=1;whiteSpace=wrap;html=1;fillColor=#f5f5f5;strokeColor=none;fontColor=#333333;movable=1;resizable=1;rotatable=1;deletable=1;editable=1;locked=0;connectable=1;" vertex="1" parent="1">
          <mxGeometry x="400" y="400" width="240" height="400" as="geometry" />
        </mxCell>
        <mxCell id="3DQG4zYHdlR7K3zyG9qU-22" value="&lt;font size=&quot;1&quot; style=&quot;&quot;&gt;&lt;b style=&quot;font-size: 16px;&quot;&gt;Pod&lt;/b&gt;&lt;/font&gt;" style="text;html=1;strokeColor=none;fillColor=none;align=center;verticalAlign=middle;whiteSpace=wrap;rounded=0;" vertex="1" parent="1">
          <mxGeometry x="490" y="401" width="60" height="30" as="geometry" />
        </mxCell>
        <mxCell id="3DQG4zYHdlR7K3zyG9qU-76" style="edgeStyle=orthogonalEdgeStyle;rounded=0;orthogonalLoop=1;jettySize=auto;html=1;" edge="1" parent="1" source="3DQG4zYHdlR7K3zyG9qU-43" target="3DQG4zYHdlR7K3zyG9qU-47">
          <mxGeometry relative="1" as="geometry" />
        </mxCell>
        <mxCell id="3DQG4zYHdlR7K3zyG9qU-43" value="socket()" style="rounded=1;whiteSpace=wrap;html=1;" vertex="1" parent="1">
          <mxGeometry x="230" y="531" width="80" height="19" as="geometry" />
        </mxCell>
        <mxCell id="3DQG4zYHdlR7K3zyG9qU-60" style="edgeStyle=orthogonalEdgeStyle;rounded=0;orthogonalLoop=1;jettySize=auto;html=1;entryX=0;entryY=0.5;entryDx=0;entryDy=0;" edge="1" parent="1" source="3DQG4zYHdlR7K3zyG9qU-44" target="3DQG4zYHdlR7K3zyG9qU-52">
          <mxGeometry relative="1" as="geometry" />
        </mxCell>
        <mxCell id="3DQG4zYHdlR7K3zyG9qU-73" value="data (request)" style="edgeLabel;html=1;align=center;verticalAlign=middle;resizable=0;points=[];" vertex="1" connectable="0" parent="3DQG4zYHdlR7K3zyG9qU-60">
          <mxGeometry x="-0.2294" relative="1" as="geometry">
            <mxPoint x="14" as="offset" />
          </mxGeometry>
        </mxCell>
        <mxCell id="3DQG4zYHdlR7K3zyG9qU-64" style="edgeStyle=orthogonalEdgeStyle;rounded=0;orthogonalLoop=1;jettySize=auto;html=1;entryX=0.5;entryY=0;entryDx=0;entryDy=0;" edge="1" parent="1" source="3DQG4zYHdlR7K3zyG9qU-44" target="3DQG4zYHdlR7K3zyG9qU-45">
          <mxGeometry relative="1" as="geometry" />
        </mxCell>
        <mxCell id="3DQG4zYHdlR7K3zyG9qU-44" value="write()" style="rounded=1;whiteSpace=wrap;html=1;" vertex="1" parent="1">
          <mxGeometry x="230" y="640" width="80" height="19" as="geometry" />
        </mxCell>
        <mxCell id="3DQG4zYHdlR7K3zyG9qU-65" style="edgeStyle=orthogonalEdgeStyle;rounded=0;orthogonalLoop=1;jettySize=auto;html=1;entryX=0;entryY=0.5;entryDx=0;entryDy=0;" edge="1" parent="1" source="3DQG4zYHdlR7K3zyG9qU-45" target="3DQG4zYHdlR7K3zyG9qU-44">
          <mxGeometry relative="1" as="geometry">
            <Array as="points">
              <mxPoint x="210" y="700" />
              <mxPoint x="210" y="650" />
            </Array>
          </mxGeometry>
        </mxCell>
        <mxCell id="3DQG4zYHdlR7K3zyG9qU-67" style="edgeStyle=orthogonalEdgeStyle;rounded=0;orthogonalLoop=1;jettySize=auto;html=1;entryX=0.5;entryY=0;entryDx=0;entryDy=0;" edge="1" parent="1" source="3DQG4zYHdlR7K3zyG9qU-45" target="3DQG4zYHdlR7K3zyG9qU-46">
          <mxGeometry relative="1" as="geometry" />
        </mxCell>
        <mxCell id="3DQG4zYHdlR7K3zyG9qU-45" value="read()" style="rounded=1;whiteSpace=wrap;html=1;" vertex="1" parent="1">
          <mxGeometry x="230" y="690" width="80" height="19" as="geometry" />
        </mxCell>
        <mxCell id="3DQG4zYHdlR7K3zyG9qU-70" style="edgeStyle=orthogonalEdgeStyle;rounded=0;orthogonalLoop=1;jettySize=auto;html=1;" edge="1" parent="1" source="3DQG4zYHdlR7K3zyG9qU-46" target="3DQG4zYHdlR7K3zyG9qU-69">
          <mxGeometry relative="1" as="geometry" />
        </mxCell>
        <mxCell id="3DQG4zYHdlR7K3zyG9qU-71" value="EOF notification" style="edgeLabel;html=1;align=center;verticalAlign=middle;resizable=0;points=[];" vertex="1" connectable="0" parent="3DQG4zYHdlR7K3zyG9qU-70">
          <mxGeometry x="-0.1765" y="-1" relative="1" as="geometry">
            <mxPoint x="10" y="-1" as="offset" />
          </mxGeometry>
        </mxCell>
        <mxCell id="3DQG4zYHdlR7K3zyG9qU-46" value="close()" style="rounded=1;whiteSpace=wrap;html=1;" vertex="1" parent="1">
          <mxGeometry x="230" y="730" width="80" height="19" as="geometry" />
        </mxCell>
        <mxCell id="3DQG4zYHdlR7K3zyG9qU-58" style="edgeStyle=orthogonalEdgeStyle;rounded=0;orthogonalLoop=1;jettySize=auto;html=1;startArrow=classic;startFill=1;" edge="1" parent="1" source="3DQG4zYHdlR7K3zyG9qU-47" target="3DQG4zYHdlR7K3zyG9qU-51">
          <mxGeometry relative="1" as="geometry" />
        </mxCell>
        <mxCell id="3DQG4zYHdlR7K3zyG9qU-59" value="建立TCP连接" style="edgeLabel;html=1;align=center;verticalAlign=middle;resizable=0;points=[];" vertex="1" connectable="0" parent="3DQG4zYHdlR7K3zyG9qU-58">
          <mxGeometry x="0.0941" y="1" relative="1" as="geometry">
            <mxPoint x="-13" y="1" as="offset" />
          </mxGeometry>
        </mxCell>
        <mxCell id="3DQG4zYHdlR7K3zyG9qU-47" value="connect()" style="rounded=1;whiteSpace=wrap;html=1;" vertex="1" parent="1">
          <mxGeometry x="230" y="610" width="80" height="19" as="geometry" />
        </mxCell>
        <mxCell id="3DQG4zYHdlR7K3zyG9qU-57" style="edgeStyle=orthogonalEdgeStyle;rounded=0;orthogonalLoop=1;jettySize=auto;html=1;entryX=0.5;entryY=0;entryDx=0;entryDy=0;" edge="1" parent="1" source="3DQG4zYHdlR7K3zyG9qU-48" target="3DQG4zYHdlR7K3zyG9qU-50">
          <mxGeometry relative="1" as="geometry" />
        </mxCell>
        <mxCell id="3DQG4zYHdlR7K3zyG9qU-48" value="server" style="rounded=1;whiteSpace=wrap;html=1;" vertex="1" parent="1">
          <mxGeometry x="480" y="441" width="80" height="19" as="geometry" />
        </mxCell>
        <mxCell id="3DQG4zYHdlR7K3zyG9qU-49" value="socket()" style="rounded=1;whiteSpace=wrap;html=1;" vertex="1" parent="1">
          <mxGeometry x="480" y="470" width="80" height="19" as="geometry" />
        </mxCell>
        <mxCell id="3DQG4zYHdlR7K3zyG9qU-55" style="edgeStyle=orthogonalEdgeStyle;rounded=0;orthogonalLoop=1;jettySize=auto;html=1;entryX=0.5;entryY=0;entryDx=0;entryDy=0;" edge="1" parent="1" source="3DQG4zYHdlR7K3zyG9qU-50" target="3DQG4zYHdlR7K3zyG9qU-51">
          <mxGeometry relative="1" as="geometry" />
        </mxCell>
        <mxCell id="3DQG4zYHdlR7K3zyG9qU-56" value="阻塞等待客户端连接请求" style="edgeLabel;html=1;align=center;verticalAlign=middle;resizable=0;points=[];" vertex="1" connectable="0" parent="3DQG4zYHdlR7K3zyG9qU-55">
          <mxGeometry x="-0.2485" y="1" relative="1" as="geometry">
            <mxPoint x="-1" y="8" as="offset" />
          </mxGeometry>
        </mxCell>
        <mxCell id="3DQG4zYHdlR7K3zyG9qU-50" value="listen()" style="rounded=1;whiteSpace=wrap;html=1;" vertex="1" parent="1">
          <mxGeometry x="480" y="530" width="80" height="19" as="geometry" />
        </mxCell>
        <mxCell id="3DQG4zYHdlR7K3zyG9qU-51" value="accept()" style="rounded=1;whiteSpace=wrap;html=1;" vertex="1" parent="1">
          <mxGeometry x="480" y="610" width="80" height="19" as="geometry" />
        </mxCell>
        <mxCell id="3DQG4zYHdlR7K3zyG9qU-61" style="edgeStyle=orthogonalEdgeStyle;rounded=0;orthogonalLoop=1;jettySize=auto;html=1;" edge="1" parent="1" source="3DQG4zYHdlR7K3zyG9qU-52" target="3DQG4zYHdlR7K3zyG9qU-54">
          <mxGeometry relative="1" as="geometry" />
        </mxCell>
        <mxCell id="3DQG4zYHdlR7K3zyG9qU-52" value="read()" style="rounded=1;whiteSpace=wrap;html=1;" vertex="1" parent="1">
          <mxGeometry x="480" y="640" width="80" height="19" as="geometry" />
        </mxCell>
        <mxCell id="3DQG4zYHdlR7K3zyG9qU-53" value="bind()" style="rounded=1;whiteSpace=wrap;html=1;" vertex="1" parent="1">
          <mxGeometry x="480" y="500" width="80" height="19" as="geometry" />
        </mxCell>
        <mxCell id="3DQG4zYHdlR7K3zyG9qU-62" style="edgeStyle=orthogonalEdgeStyle;rounded=0;orthogonalLoop=1;jettySize=auto;html=1;" edge="1" parent="1" source="3DQG4zYHdlR7K3zyG9qU-54" target="3DQG4zYHdlR7K3zyG9qU-45">
          <mxGeometry relative="1" as="geometry" />
        </mxCell>
        <mxCell id="3DQG4zYHdlR7K3zyG9qU-72" value="data (reply)" style="edgeLabel;html=1;align=center;verticalAlign=middle;resizable=0;points=[];" vertex="1" connectable="0" parent="3DQG4zYHdlR7K3zyG9qU-62">
          <mxGeometry x="0.0529" y="1" relative="1" as="geometry">
            <mxPoint x="-1" y="-1" as="offset" />
          </mxGeometry>
        </mxCell>
        <mxCell id="3DQG4zYHdlR7K3zyG9qU-66" style="edgeStyle=orthogonalEdgeStyle;rounded=0;orthogonalLoop=1;jettySize=auto;html=1;entryX=1;entryY=0.5;entryDx=0;entryDy=0;" edge="1" parent="1" source="3DQG4zYHdlR7K3zyG9qU-54" target="3DQG4zYHdlR7K3zyG9qU-52">
          <mxGeometry relative="1" as="geometry">
            <Array as="points">
              <mxPoint x="580" y="700" />
              <mxPoint x="580" y="650" />
            </Array>
          </mxGeometry>
        </mxCell>
        <mxCell id="3DQG4zYHdlR7K3zyG9qU-75" style="edgeStyle=orthogonalEdgeStyle;rounded=0;orthogonalLoop=1;jettySize=auto;html=1;entryX=0.5;entryY=0;entryDx=0;entryDy=0;" edge="1" parent="1" source="3DQG4zYHdlR7K3zyG9qU-54" target="3DQG4zYHdlR7K3zyG9qU-69">
          <mxGeometry relative="1" as="geometry" />
        </mxCell>
        <mxCell id="3DQG4zYHdlR7K3zyG9qU-54" value="write()" style="rounded=1;whiteSpace=wrap;html=1;" vertex="1" parent="1">
          <mxGeometry x="480" y="690" width="80" height="19" as="geometry" />
        </mxCell>
        <mxCell id="3DQG4zYHdlR7K3zyG9qU-68" value="close()" style="rounded=1;whiteSpace=wrap;html=1;" vertex="1" parent="1">
          <mxGeometry x="480" y="770" width="80" height="19" as="geometry" />
        </mxCell>
        <mxCell id="3DQG4zYHdlR7K3zyG9qU-74" style="edgeStyle=orthogonalEdgeStyle;rounded=0;orthogonalLoop=1;jettySize=auto;html=1;" edge="1" parent="1" source="3DQG4zYHdlR7K3zyG9qU-69" target="3DQG4zYHdlR7K3zyG9qU-68">
          <mxGeometry relative="1" as="geometry" />
        </mxCell>
        <mxCell id="3DQG4zYHdlR7K3zyG9qU-69" value="read()" style="rounded=1;whiteSpace=wrap;html=1;" vertex="1" parent="1">
          <mxGeometry x="480" y="730" width="80" height="19" as="geometry" />
        </mxCell>
        <mxCell id="3DQG4zYHdlR7K3zyG9qU-78" value="" style="rounded=1;whiteSpace=wrap;html=1;fillColor=#f5f5f5;strokeColor=none;fontColor=#333333;movable=1;resizable=1;rotatable=1;deletable=1;editable=1;locked=0;connectable=1;" vertex="1" parent="1">
          <mxGeometry x="670" y="410" width="240" height="400" as="geometry" />
        </mxCell>
        <mxCell id="3DQG4zYHdlR7K3zyG9qU-79" style="edgeStyle=orthogonalEdgeStyle;rounded=0;orthogonalLoop=1;jettySize=auto;html=1;endArrow=none;endFill=0;" edge="1" parent="1" source="3DQG4zYHdlR7K3zyG9qU-80" target="3DQG4zYHdlR7K3zyG9qU-85">
          <mxGeometry relative="1" as="geometry" />
        </mxCell>
        <mxCell id="3DQG4zYHdlR7K3zyG9qU-80" value="client" style="rounded=1;whiteSpace=wrap;html=1;" vertex="1" parent="1">
          <mxGeometry x="750" y="451" width="80" height="19" as="geometry" />
        </mxCell>
        <mxCell id="3DQG4zYHdlR7K3zyG9qU-81" value="&lt;font size=&quot;1&quot; style=&quot;&quot;&gt;&lt;b style=&quot;font-size: 16px;&quot;&gt;Pod&lt;/b&gt;&lt;/font&gt;" style="text;html=1;strokeColor=none;fillColor=none;align=center;verticalAlign=middle;whiteSpace=wrap;rounded=0;" vertex="1" parent="1">
          <mxGeometry x="760" y="411" width="60" height="30" as="geometry" />
        </mxCell>
        <mxCell id="3DQG4zYHdlR7K3zyG9qU-82" value="" style="rounded=1;whiteSpace=wrap;html=1;fillColor=#f5f5f5;strokeColor=none;fontColor=#333333;movable=1;resizable=1;rotatable=1;deletable=1;editable=1;locked=0;connectable=1;" vertex="1" parent="1">
          <mxGeometry x="920" y="410" width="240" height="400" as="geometry" />
        </mxCell>
        <mxCell id="3DQG4zYHdlR7K3zyG9qU-83" value="&lt;font size=&quot;1&quot; style=&quot;&quot;&gt;&lt;b style=&quot;font-size: 16px;&quot;&gt;Pod&lt;/b&gt;&lt;/font&gt;" style="text;html=1;strokeColor=none;fillColor=none;align=center;verticalAlign=middle;whiteSpace=wrap;rounded=0;" vertex="1" parent="1">
          <mxGeometry x="1010" y="411" width="60" height="30" as="geometry" />
        </mxCell>
        <mxCell id="3DQG4zYHdlR7K3zyG9qU-84" style="edgeStyle=orthogonalEdgeStyle;rounded=0;orthogonalLoop=1;jettySize=auto;html=1;" edge="1" parent="1" source="3DQG4zYHdlR7K3zyG9qU-85" target="3DQG4zYHdlR7K3zyG9qU-98">
          <mxGeometry relative="1" as="geometry" />
        </mxCell>
        <mxCell id="3DQG4zYHdlR7K3zyG9qU-85" value="socket()" style="rounded=1;whiteSpace=wrap;html=1;" vertex="1" parent="1">
          <mxGeometry x="750" y="481" width="80" height="19" as="geometry" />
        </mxCell>
        <mxCell id="3DQG4zYHdlR7K3zyG9qU-86" style="edgeStyle=orthogonalEdgeStyle;rounded=0;orthogonalLoop=1;jettySize=auto;html=1;entryX=0;entryY=0.5;entryDx=0;entryDy=0;" edge="1" parent="1" source="3DQG4zYHdlR7K3zyG9qU-89" target="3DQG4zYHdlR7K3zyG9qU-107">
          <mxGeometry relative="1" as="geometry" />
        </mxCell>
        <mxCell id="3DQG4zYHdlR7K3zyG9qU-87" value="data (request)" style="edgeLabel;html=1;align=center;verticalAlign=middle;resizable=0;points=[];" vertex="1" connectable="0" parent="3DQG4zYHdlR7K3zyG9qU-86">
          <mxGeometry x="-0.2294" relative="1" as="geometry">
            <mxPoint x="14" as="offset" />
          </mxGeometry>
        </mxCell>
        <mxCell id="3DQG4zYHdlR7K3zyG9qU-88" style="edgeStyle=orthogonalEdgeStyle;rounded=0;orthogonalLoop=1;jettySize=auto;html=1;entryX=0.5;entryY=0;entryDx=0;entryDy=0;" edge="1" parent="1" source="3DQG4zYHdlR7K3zyG9qU-89" target="3DQG4zYHdlR7K3zyG9qU-92">
          <mxGeometry relative="1" as="geometry" />
        </mxCell>
        <mxCell id="3DQG4zYHdlR7K3zyG9qU-89" value="write()" style="rounded=1;whiteSpace=wrap;html=1;" vertex="1" parent="1">
          <mxGeometry x="750" y="650" width="80" height="19" as="geometry" />
        </mxCell>
        <mxCell id="3DQG4zYHdlR7K3zyG9qU-90" style="edgeStyle=orthogonalEdgeStyle;rounded=0;orthogonalLoop=1;jettySize=auto;html=1;entryX=0;entryY=0.5;entryDx=0;entryDy=0;" edge="1" parent="1" source="3DQG4zYHdlR7K3zyG9qU-92" target="3DQG4zYHdlR7K3zyG9qU-89">
          <mxGeometry relative="1" as="geometry">
            <Array as="points">
              <mxPoint x="730" y="710" />
              <mxPoint x="730" y="660" />
            </Array>
          </mxGeometry>
        </mxCell>
        <mxCell id="3DQG4zYHdlR7K3zyG9qU-91" style="edgeStyle=orthogonalEdgeStyle;rounded=0;orthogonalLoop=1;jettySize=auto;html=1;entryX=0.5;entryY=0;entryDx=0;entryDy=0;" edge="1" parent="1" source="3DQG4zYHdlR7K3zyG9qU-92" target="3DQG4zYHdlR7K3zyG9qU-95">
          <mxGeometry relative="1" as="geometry" />
        </mxCell>
        <mxCell id="3DQG4zYHdlR7K3zyG9qU-92" value="read()" style="rounded=1;whiteSpace=wrap;html=1;" vertex="1" parent="1">
          <mxGeometry x="750" y="700" width="80" height="19" as="geometry" />
        </mxCell>
        <mxCell id="3DQG4zYHdlR7K3zyG9qU-93" style="edgeStyle=orthogonalEdgeStyle;rounded=0;orthogonalLoop=1;jettySize=auto;html=1;" edge="1" parent="1" source="3DQG4zYHdlR7K3zyG9qU-95" target="3DQG4zYHdlR7K3zyG9qU-116">
          <mxGeometry relative="1" as="geometry" />
        </mxCell>
        <mxCell id="3DQG4zYHdlR7K3zyG9qU-94" value="EOF notification" style="edgeLabel;html=1;align=center;verticalAlign=middle;resizable=0;points=[];" vertex="1" connectable="0" parent="3DQG4zYHdlR7K3zyG9qU-93">
          <mxGeometry x="-0.1765" y="-1" relative="1" as="geometry">
            <mxPoint x="10" y="-1" as="offset" />
          </mxGeometry>
        </mxCell>
        <mxCell id="3DQG4zYHdlR7K3zyG9qU-95" value="close()" style="rounded=1;whiteSpace=wrap;html=1;" vertex="1" parent="1">
          <mxGeometry x="750" y="740" width="80" height="19" as="geometry" />
        </mxCell>
        <mxCell id="3DQG4zYHdlR7K3zyG9qU-96" style="edgeStyle=orthogonalEdgeStyle;rounded=0;orthogonalLoop=1;jettySize=auto;html=1;startArrow=classic;startFill=1;" edge="1" parent="1" source="3DQG4zYHdlR7K3zyG9qU-98" target="3DQG4zYHdlR7K3zyG9qU-105">
          <mxGeometry relative="1" as="geometry" />
        </mxCell>
        <mxCell id="3DQG4zYHdlR7K3zyG9qU-97" value="建立TCP连接" style="edgeLabel;html=1;align=center;verticalAlign=middle;resizable=0;points=[];" vertex="1" connectable="0" parent="3DQG4zYHdlR7K3zyG9qU-96">
          <mxGeometry x="0.0941" y="1" relative="1" as="geometry">
            <mxPoint x="-13" y="1" as="offset" />
          </mxGeometry>
        </mxCell>
        <mxCell id="3DQG4zYHdlR7K3zyG9qU-98" value="connect()" style="rounded=1;whiteSpace=wrap;html=1;" vertex="1" parent="1">
          <mxGeometry x="750" y="620" width="80" height="19" as="geometry" />
        </mxCell>
        <mxCell id="3DQG4zYHdlR7K3zyG9qU-99" style="edgeStyle=orthogonalEdgeStyle;rounded=0;orthogonalLoop=1;jettySize=auto;html=1;entryX=0.5;entryY=0;entryDx=0;entryDy=0;" edge="1" parent="1" source="3DQG4zYHdlR7K3zyG9qU-100" target="3DQG4zYHdlR7K3zyG9qU-104">
          <mxGeometry relative="1" as="geometry" />
        </mxCell>
        <mxCell id="3DQG4zYHdlR7K3zyG9qU-100" value="server" style="rounded=1;whiteSpace=wrap;html=1;" vertex="1" parent="1">
          <mxGeometry x="1000" y="451" width="80" height="19" as="geometry" />
        </mxCell>
        <mxCell id="3DQG4zYHdlR7K3zyG9qU-101" value="socket()" style="rounded=1;whiteSpace=wrap;html=1;" vertex="1" parent="1">
          <mxGeometry x="1000" y="480" width="80" height="19" as="geometry" />
        </mxCell>
        <mxCell id="3DQG4zYHdlR7K3zyG9qU-102" style="edgeStyle=orthogonalEdgeStyle;rounded=0;orthogonalLoop=1;jettySize=auto;html=1;entryX=0.5;entryY=0;entryDx=0;entryDy=0;" edge="1" parent="1" source="3DQG4zYHdlR7K3zyG9qU-104" target="3DQG4zYHdlR7K3zyG9qU-105">
          <mxGeometry relative="1" as="geometry" />
        </mxCell>
        <mxCell id="3DQG4zYHdlR7K3zyG9qU-103" value="阻塞等待客户端连接请求" style="edgeLabel;html=1;align=center;verticalAlign=middle;resizable=0;points=[];" vertex="1" connectable="0" parent="3DQG4zYHdlR7K3zyG9qU-102">
          <mxGeometry x="-0.2485" y="1" relative="1" as="geometry">
            <mxPoint x="-1" y="8" as="offset" />
          </mxGeometry>
        </mxCell>
        <mxCell id="3DQG4zYHdlR7K3zyG9qU-104" value="listen()" style="rounded=1;whiteSpace=wrap;html=1;" vertex="1" parent="1">
          <mxGeometry x="1000" y="540" width="80" height="19" as="geometry" />
        </mxCell>
        <mxCell id="3DQG4zYHdlR7K3zyG9qU-105" value="accept()" style="rounded=1;whiteSpace=wrap;html=1;" vertex="1" parent="1">
          <mxGeometry x="1000" y="620" width="80" height="19" as="geometry" />
        </mxCell>
        <mxCell id="3DQG4zYHdlR7K3zyG9qU-106" style="edgeStyle=orthogonalEdgeStyle;rounded=0;orthogonalLoop=1;jettySize=auto;html=1;" edge="1" parent="1" source="3DQG4zYHdlR7K3zyG9qU-107" target="3DQG4zYHdlR7K3zyG9qU-113">
          <mxGeometry relative="1" as="geometry" />
        </mxCell>
        <mxCell id="3DQG4zYHdlR7K3zyG9qU-107" value="read()" style="rounded=1;whiteSpace=wrap;html=1;" vertex="1" parent="1">
          <mxGeometry x="1000" y="650" width="80" height="19" as="geometry" />
        </mxCell>
        <mxCell id="3DQG4zYHdlR7K3zyG9qU-108" value="bind()" style="rounded=1;whiteSpace=wrap;html=1;" vertex="1" parent="1">
          <mxGeometry x="1000" y="510" width="80" height="19" as="geometry" />
        </mxCell>
        <mxCell id="3DQG4zYHdlR7K3zyG9qU-109" style="edgeStyle=orthogonalEdgeStyle;rounded=0;orthogonalLoop=1;jettySize=auto;html=1;" edge="1" parent="1" source="3DQG4zYHdlR7K3zyG9qU-113" target="3DQG4zYHdlR7K3zyG9qU-92">
          <mxGeometry relative="1" as="geometry" />
        </mxCell>
        <mxCell id="3DQG4zYHdlR7K3zyG9qU-110" value="data (reply)" style="edgeLabel;html=1;align=center;verticalAlign=middle;resizable=0;points=[];" vertex="1" connectable="0" parent="3DQG4zYHdlR7K3zyG9qU-109">
          <mxGeometry x="0.0529" y="1" relative="1" as="geometry">
            <mxPoint x="-1" y="-1" as="offset" />
          </mxGeometry>
        </mxCell>
        <mxCell id="3DQG4zYHdlR7K3zyG9qU-111" style="edgeStyle=orthogonalEdgeStyle;rounded=0;orthogonalLoop=1;jettySize=auto;html=1;entryX=1;entryY=0.5;entryDx=0;entryDy=0;" edge="1" parent="1" source="3DQG4zYHdlR7K3zyG9qU-113" target="3DQG4zYHdlR7K3zyG9qU-107">
          <mxGeometry relative="1" as="geometry">
            <Array as="points">
              <mxPoint x="1100" y="710" />
              <mxPoint x="1100" y="660" />
            </Array>
          </mxGeometry>
        </mxCell>
        <mxCell id="3DQG4zYHdlR7K3zyG9qU-112" style="edgeStyle=orthogonalEdgeStyle;rounded=0;orthogonalLoop=1;jettySize=auto;html=1;entryX=0.5;entryY=0;entryDx=0;entryDy=0;" edge="1" parent="1" source="3DQG4zYHdlR7K3zyG9qU-113" target="3DQG4zYHdlR7K3zyG9qU-116">
          <mxGeometry relative="1" as="geometry" />
        </mxCell>
        <mxCell id="3DQG4zYHdlR7K3zyG9qU-113" value="write()" style="rounded=1;whiteSpace=wrap;html=1;" vertex="1" parent="1">
          <mxGeometry x="1000" y="700" width="80" height="19" as="geometry" />
        </mxCell>
        <mxCell id="3DQG4zYHdlR7K3zyG9qU-114" value="close()" style="rounded=1;whiteSpace=wrap;html=1;" vertex="1" parent="1">
          <mxGeometry x="1000" y="780" width="80" height="19" as="geometry" />
        </mxCell>
        <mxCell id="3DQG4zYHdlR7K3zyG9qU-115" style="edgeStyle=orthogonalEdgeStyle;rounded=0;orthogonalLoop=1;jettySize=auto;html=1;" edge="1" parent="1" source="3DQG4zYHdlR7K3zyG9qU-116" target="3DQG4zYHdlR7K3zyG9qU-114">
          <mxGeometry relative="1" as="geometry" />
        </mxCell>
        <mxCell id="3DQG4zYHdlR7K3zyG9qU-116" value="read()" style="rounded=1;whiteSpace=wrap;html=1;" vertex="1" parent="1">
          <mxGeometry x="1000" y="740" width="80" height="19" as="geometry" />
        </mxCell>
      </root>
    </mxGraphModel>
  </diagram>
  <diagram id="6ugb4Wdq0NPTXNifIqfi" name="Page-2">
    <mxGraphModel dx="2074" dy="1150" grid="1" gridSize="10" guides="1" tooltips="1" connect="1" arrows="1" fold="1" page="1" pageScale="1" pageWidth="850" pageHeight="1100" math="0" shadow="0">
      <root>
        <mxCell id="0" />
        <mxCell id="1" parent="0" />
      </root>
    </mxGraphModel>
  </diagram>
</mxfile>
